<?xml version="1.0" encoding="UTF-8"?>
<svg width="572px" height="64px" viewBox="0 0 572 64" version="1.1" xmlns="http://www.w3.org/2000/svg" xmlns:xlink="http://www.w3.org/1999/xlink">
    <!-- Generator: Sketch 49.1 (51147) - http://www.bohemiancoding.com/sketch -->
    <title>ICON</title>
    <desc>Created with Sketch.</desc>
    <defs></defs>
    <g id="ICON" stroke="none" stroke-width="1" fill="none" fill-rule="evenodd">
        <g id="Group" transform="translate(6.000000, 4.000000)" fill="#2C4D73">
            <path d="M26.125,36.6 C26.125,37.066669 25.991668,37.3 25.725,37.3 C25.05833,37.3 24.2416715,37.2500005 23.275,37.15 C22.208328,37.0499995 21.2666708,37 20.45,37 C19.6166625,37 18.6583388,37.0499995 17.575,37.15 C16.5916618,37.2500005 15.76667,37.3 15.1,37.3 C14.833332,37.3 14.7,37.066669 14.7,36.6 C14.7,36.1833313 14.833332,35.9583335 15.1,35.925 C16.2500058,35.791666 17.0041649,35.4666693 17.3625,34.95 C17.7208351,34.4333308 17.9,33.3500083 17.9,31.7 L17.9,23.35 C17.9,21.483324 17.533337,20.116671 16.8,19.25 C16.066663,18.383329 14.933341,17.95 13.4,17.95 C12.4333285,17.95 11.5791704,18.1333315 10.8375,18.5 C10.0958296,18.8666685 9.30000425,19.516662 8.45,20.45 L8.45,31.7 C8.45,33.3500083 8.62916488,34.4333308 8.9875,34.95 C9.34583513,35.4666693 10.0999943,35.791666 11.25,35.925 C11.516668,35.9583335 11.65,36.1833313 11.65,36.6 C11.65,37.066669 11.516668,37.3 11.25,37.3 C10.5666633,37.3 9.73333825,37.2500005 8.75,37.15 C7.66666125,37.0499995 6.71667075,37 5.9,37 C5.099996,37 4.166672,37.0499995 3.1,37.15 C2.11666175,37.2500005 1.28333675,37.3 0.6,37.3 C0.333332,37.3 0.2,37.066669 0.2,36.6 C0.2,36.1833313 0.333332,35.9583335 0.6,35.925 C2.0333405,35.7416658 2.95833125,35.3958359 3.375,34.8875 C3.79166875,34.3791641 4,33.3166748 4,31.7 L4,22.45 C4,21.11666 3.82916838,20.2416688 3.4875,19.825 C3.14583163,19.4083313 2.38333925,19.133334 1.2,19 C0.933332,19 0.8,18.7833355 0.8,18.35 C0.8,17.949998 0.933332,17.75 1.2,17.75 C2.85000825,17.3333313 4.2249945,16.8625026 5.325,16.3375 C6.4250055,15.8124974 7.11666525,15.383335 7.4,15.05 C7.5666675,14.849999 7.749999,14.75 7.95,14.75 C8.416669,14.75 8.65,14.883332 8.65,15.15 L8.45,18.3 C10.850012,16.0666555 13.083323,14.95 15.15,14.95 C17.416678,14.95 19.1874936,15.5999935 20.4625,16.9 C21.7375064,18.2000065 22.375,19.949989 22.375,22.15 L22.375,31.7 C22.375,33.3333415 22.5791646,34.3999975 22.9875,34.9 C23.3958354,35.4000025 24.3083263,35.7416658 25.725,35.925 C25.991668,35.9583335 26.125,36.1833313 26.125,36.6 Z M44.25,37.85 C43.316662,37.85 42.5041701,37.6208356 41.8125,37.1625 C41.1208299,36.7041644 40.6500013,36.0833373 40.4,35.3 C38.6166578,37.1333425 36.2833478,38.05 33.4,38.05 C31.8999925,38.05 30.6750048,37.5875046 29.725,36.6625 C28.7749953,35.7374954 28.3,34.5833403 28.3,33.2 C28.3,29.7833163 32.3499595,27.0166773 40.45,24.9 L40.6,21 L40.6,20.875 C40.6,19.674994 40.3041696,18.7208369 39.7125,18.0125 C39.1208304,17.3041631 38.3333383,16.95 37.35,16.95 C36.3666618,16.95 35.5333368,17.1874976 34.85,17.6625 C34.1666632,18.1375024 33.8166668,18.7333298 33.8,19.45 C33.7833333,20.516672 33.5041694,21.349997 32.9625,21.95 C32.4208306,22.550003 31.7000045,22.85 30.8,22.85 C30.266664,22.85 29.833335,22.6916683 29.5,22.375 C29.166665,22.0583318 29,21.633336 29,21.1 C29,19.8166603 30.166655,18.4708404 32.5,17.0625 C34.833345,15.6541596 36.99999,14.95 39,14.95 C40.800009,14.95 42.2583278,15.483328 43.375,16.55 C44.4916723,17.616672 45.05,19.049991 45.05,20.85 L45.05,21.15 L44.7,32.45 L44.7,32.625 C44.7,34.3750088 45.266661,35.25 46.4,35.25 C46.9500028,35.25 47.591663,34.91667 48.325,34.25 L48.5,34.2 C48.633334,34.2 48.7583328,34.2874991 48.875,34.4625 C48.9916673,34.6375009 49.05,34.824999 49.05,35.025 C49.05,35.5083358 48.5458384,36.0999965 47.5375,36.8 C46.5291616,37.5000035 45.4333393,37.85 44.25,37.85 Z M40.4,26.6 C35.533309,27.7000055 33.1,29.516654 33.1,32.05 C33.1,34.4166785 34.0166575,35.6 35.85,35.6 C36.7333378,35.6 37.6041624,35.3791689 38.4625,34.9375 C39.3208376,34.4958311 39.8999985,33.9500033 40.2,33.3 L40.4,26.6 Z M65.95,17.4 C65.95,18.3000045 65.7333355,18.75 65.3,18.75 L57.85,18.55 L57.85,30.55 C57.85,33.683349 58.9666555,35.25 61.2,35.25 C62.5833403,35.25 63.841661,34.9250033 64.975,34.275 C65.108334,34.275 65.2291661,34.3624991 65.3375,34.5375 C65.4458339,34.7125009 65.5,34.899999 65.5,35.1 C65.5,35.5166688 64.8791729,36.0791631 63.6375,36.7875 C62.3958271,37.4958369 61.0000078,37.85 59.45,37.85 C57.5499905,37.85 56.033339,37.2708391 54.9,36.1125 C53.766661,34.9541609 53.2,33.4250095 53.2,31.525 L53.2,31.3 L53.3,19.15 C53.3,18.683331 53.100002,18.45 52.7,18.45 L50.8,18.45 C50.4333315,18.45 50.25,18.2333355 50.25,17.8 C50.25,17.466665 50.3999985,17.2166675 50.7,17.05 C53.0166783,15.6833265 55.0333248,13.7583458 56.75,11.275 C56.9333343,11.008332 57.1666653,10.875 57.45,10.875 C57.916669,10.875 58.15,11.008332 58.15,11.275 L57.95,16.05 L65.3,16.05 C65.7333355,16.05 65.95,16.4999955 65.95,17.4 Z M76.95,6.375 C76.95,7.0750035 76.6958359,7.68333075 76.1875,8.2 C75.6791641,8.71666925 75.0666703,8.975 74.35,8.975 C73.6333298,8.975 73.0208359,8.71666925 72.5125,8.2 C72.0041641,7.68333075 71.75,7.0750035 71.75,6.375 C71.75,5.641663 71.9999975,5.0250025 72.5,4.525 C73.0000025,4.0249975 73.616663,3.775 74.35,3.775 C75.0666703,3.775 75.6791641,4.0249975 76.1875,4.525 C76.6958359,5.0250025 76.95,5.641663 76.95,6.375 Z M80.45,36.6 C80.45,37.066669 80.316668,37.3 80.05,37.3 C79.3666633,37.3 78.491672,37.2500005 77.425,37.15 C76.224994,37.0499995 75.2166707,37 74.4,37 C73.5666625,37 72.5666725,37.0499995 71.4,37.15 C70.3499947,37.2500005 69.4833367,37.3 68.8,37.3 C68.533332,37.3 68.4,37.066669 68.4,36.6 C68.4,36.1833313 68.533332,35.9583335 68.8,35.925 C70.2166737,35.7416658 71.1291646,35.4000025 71.5375,34.9 C71.9458354,34.3999975 72.15,33.3333415 72.15,31.7 L72.15,22.45 C72.15,21.11666 71.9791684,20.2416688 71.6375,19.825 C71.2958316,19.4083313 70.5500057,19.133334 69.4,19 C69.133332,19 69,18.7833355 69,18.35 C69,17.949998 69.133332,17.75 69.4,17.75 C71.1500087,17.2999978 72.5833277,16.8208359 73.7,16.3125 C74.8166722,15.8041641 75.5166652,15.383335 75.8,15.05 C75.9666675,14.849999 76.149999,14.75 76.35,14.75 C76.816669,14.75 77.05,14.883332 77.05,15.15 C76.783332,18.883352 76.65,21.783323 76.65,23.85 L76.65,31.7 C76.65,33.3333415 76.8541646,34.3999975 77.2625,34.9 C77.6708354,35.4000025 78.5999927,35.7416658 80.05,35.925 C80.316668,35.9583335 80.45,36.1833313 80.45,36.6 Z M106.175,26.65 C106.175,29.9666833 105.095844,32.6958226 102.9375,34.8375 C100.779156,36.9791774 97.9833505,38.05 94.55,38.05 C91.1166495,38.05 88.3166775,36.9750108 86.15,34.825 C83.9833225,32.6749893 82.9,29.9500165 82.9,26.65 C82.9,23.2999833 83.9916558,20.5125111 86.175,18.2875 C88.3583443,16.0624889 91.149983,14.95 94.55,14.95 C97.9666838,14.95 100.758323,16.0583223 102.925,18.275 C105.091678,20.4916778 106.175,23.2833165 106.175,26.65 Z M101.15,26.6 C101.15,23.5499848 100.562506,21.1125091 99.3875,19.2875 C98.2124941,17.4624909 96.6000103,16.55 94.55,16.55 C92.5166565,16.55 90.9083393,17.4666575 89.725,19.3 C88.5416608,21.1333425 87.95,23.5666515 87.95,26.6 C87.95,29.6166818 88.5333275,32.0124911 89.7,33.7875 C90.8666725,35.5625089 92.483323,36.45 94.55,36.45 C96.616677,36.45 98.2333275,35.5708421 99.4,33.8125 C100.566673,32.0541579 101.15,29.6500153 101.15,26.6 Z M135.075,36.6 C135.075,37.066669 134.941668,37.3 134.675,37.3 C134.00833,37.3 133.191671,37.2500005 132.225,37.15 C131.158328,37.0499995 130.216671,37 129.4,37 C128.566663,37 127.608339,37.0499995 126.525,37.15 C125.541662,37.2500005 124.71667,37.3 124.05,37.3 C123.783332,37.3 123.65,37.066669 123.65,36.6 C123.65,36.1833313 123.783332,35.9583335 124.05,35.925 C125.200006,35.791666 125.954165,35.4666693 126.3125,34.95 C126.670835,34.4333308 126.85,33.3500083 126.85,31.7 L126.85,23.35 C126.85,21.483324 126.483337,20.116671 125.75,19.25 C125.016663,18.383329 123.883341,17.95 122.35,17.95 C121.383328,17.95 120.52917,18.1333315 119.7875,18.5 C119.04583,18.8666685 118.250004,19.516662 117.4,20.45 L117.4,31.7 C117.4,33.3500083 117.579165,34.4333308 117.9375,34.95 C118.295835,35.4666693 119.049994,35.791666 120.2,35.925 C120.466668,35.9583335 120.6,36.1833313 120.6,36.6 C120.6,37.066669 120.466668,37.3 120.2,37.3 C119.516663,37.3 118.683338,37.2500005 117.7,37.15 C116.616661,37.0499995 115.666671,37 114.85,37 C114.049996,37 113.116672,37.0499995 112.05,37.15 C111.066662,37.2500005 110.233337,37.3 109.55,37.3 C109.283332,37.3 109.15,37.066669 109.15,36.6 C109.15,36.1833313 109.283332,35.9583335 109.55,35.925 C110.98334,35.7416658 111.908331,35.3958359 112.325,34.8875 C112.741669,34.3791641 112.95,33.3166748 112.95,31.7 L112.95,22.45 C112.95,21.11666 112.779168,20.2416688 112.4375,19.825 C112.095832,19.4083313 111.333339,19.133334 110.15,19 C109.883332,19 109.75,18.7833355 109.75,18.35 C109.75,17.949998 109.883332,17.75 110.15,17.75 C111.800008,17.3333313 113.174994,16.8625026 114.275,16.3375 C115.375005,15.8124974 116.066665,15.383335 116.35,15.05 C116.516667,14.849999 116.699999,14.75 116.9,14.75 C117.366669,14.75 117.6,14.883332 117.6,15.15 L117.4,18.3 C119.800012,16.0666555 122.033323,14.95 124.1,14.95 C126.366678,14.95 128.137494,15.5999935 129.4125,16.9 C130.687506,18.2000065 131.325,19.949989 131.325,22.15 L131.325,31.7 C131.325,33.3333415 131.529165,34.3999975 131.9375,34.9 C132.345835,35.4000025 133.258326,35.7416658 134.675,35.925 C134.941668,35.9583335 135.075,36.1833313 135.075,36.6 Z M153.2,37.85 C152.266662,37.85 151.45417,37.6208356 150.7625,37.1625 C150.07083,36.7041644 149.600001,36.0833373 149.35,35.3 C147.566658,37.1333425 145.233348,38.05 142.35,38.05 C140.849992,38.05 139.625005,37.5875046 138.675,36.6625 C137.724995,35.7374954 137.25,34.5833403 137.25,33.2 C137.25,29.7833163 141.299959,27.0166773 149.4,24.9 L149.55,21 L149.55,20.875 C149.55,19.674994 149.25417,18.7208369 148.6625,18.0125 C148.07083,17.3041631 147.283338,16.95 146.3,16.95 C145.316662,16.95 144.483337,17.1874976 143.8,17.6625 C143.116663,18.1375024 142.766667,18.7333298 142.75,19.45 C142.733333,20.516672 142.454169,21.349997 141.9125,21.95 C141.370831,22.550003 140.650005,22.85 139.75,22.85 C139.216664,22.85 138.783335,22.6916683 138.45,22.375 C138.116665,22.0583318 137.95,21.633336 137.95,21.1 C137.95,19.8166603 139.116655,18.4708404 141.45,17.0625 C143.783345,15.6541596 145.94999,14.95 147.95,14.95 C149.750009,14.95 151.208328,15.483328 152.325,16.55 C153.441672,17.616672 154,19.049991 154,20.85 L154,21.15 L153.65,32.45 L153.65,32.625 C153.65,34.3750088 154.216661,35.25 155.35,35.25 C155.900003,35.25 156.541663,34.91667 157.275,34.25 L157.45,34.2 C157.583334,34.2 157.708333,34.2874991 157.825,34.4625 C157.941667,34.6375009 158,34.824999 158,35.025 C158,35.5083358 157.495838,36.0999965 156.4875,36.8 C155.479162,37.5000035 154.383339,37.85 153.2,37.85 Z M149.35,26.6 C144.483309,27.7000055 142.05,29.516654 142.05,32.05 C142.05,34.4166785 142.966657,35.6 144.8,35.6 C145.683338,35.6 146.554162,35.3791689 147.4125,34.9375 C148.270838,34.4958311 148.849999,33.9500033 149.15,33.3 L149.35,26.6 Z M170.4,36.55 C170.4,37.016669 170.266668,37.25 170,37.25 C169.316663,37.25 168.441672,37.2083338 167.375,37.125 C166.174994,37.0416663 165.166671,37 164.35,37 C163.549996,37 162.558339,37.0416663 161.375,37.125 C160.308328,37.2083338 159.433337,37.25 158.75,37.25 C158.483332,37.25 158.35,37.016669 158.35,36.55 C158.35,36.1333313 158.483332,35.9083335 158.75,35.875 C160.166674,35.7083325 161.087498,35.3708359 161.5125,34.8625 C161.937502,34.3541641 162.15,33.2833415 162.15,31.65 L162.15,8.425 C162.15,7.07499325 161.983335,6.19166875 161.65,5.775 C161.316665,5.35833125 160.550006,5.083334 159.35,4.95 C159.083332,4.9166665 158.95,4.70833525 158.95,4.325 C158.95,3.924998 159.083332,3.725 159.35,3.725 C161.100009,3.27499775 162.533328,2.79583588 163.65,2.2875 C164.766672,1.77916413 165.466665,1.35000175 165.75,1 C165.916668,0.81666575 166.099999,0.725 166.3,0.725 C166.766669,0.725 167,0.858332 167,1.125 C166.733332,4.858352 166.6,7.758323 166.6,9.825 L166.6,31.65 C166.6,33.2833415 166.808331,34.3541641 167.225,34.8625 C167.641669,35.3708359 168.56666,35.7083325 170,35.875 C170.266668,35.9083335 170.4,36.1333313 170.4,36.55 Z M208.475,26.4 C208.475,29.466682 207.391678,32.1749883 205.225,34.525 C203.058323,36.8750118 200.550014,38.05 197.7,38.05 C196.116659,38.05 194.583341,37.71667 193.1,37.05 C192.083328,36.583331 191.183337,36.35 190.4,36.35 C189.149994,36.35 188.325002,36.883328 187.925,37.95 C187.841666,38.150001 187.633335,38.25 187.3,38.25 C186.866665,38.25 186.65,38.116668 186.65,37.85 C186.783334,36.449993 186.85,34.7666765 186.85,32.8 L186.85,8.425 C186.85,7.07499325 186.679168,6.19166875 186.3375,5.775 C185.995832,5.35833125 185.250006,5.09166725 184.1,4.975 C183.833332,4.975 183.7,4.775002 183.7,4.375 C183.7,3.908331 183.833332,3.675 184.1,3.675 C187.066682,2.9083295 189.174994,2.025005 190.425,1.025 C190.675001,0.824999 190.883333,0.725 191.05,0.725 C191.516669,0.725 191.75,0.858332 191.75,1.125 C191.483332,4.7583515 191.35,7.674989 191.35,9.875 L191.35,17.35 C192.916675,15.7833255 194.833322,15 197.1,15 C200.48335,15 203.22499,16.0249898 205.325,18.075 C207.425011,20.1250103 208.475,22.8999825 208.475,26.4 Z M203.45,26.6 C203.45,23.533318 202.841673,21.133342 201.625,19.4 C200.408327,17.666658 198.700011,16.8 196.5,16.8 C195.316661,16.8 194.162506,17.2458289 193.0375,18.1375 C191.912494,19.0291711 191.35,19.9166623 191.35,20.8 L191.35,32.35 C191.35,33.2333378 192.020827,34.1291621 193.3625,35.0375 C194.704173,35.9458379 195.949994,36.4 197.1,36.4 C199.10001,36.4 200.658328,35.5083423 201.775,33.725 C202.891672,31.9416578 203.45,29.5666815 203.45,26.6 Z M235.525,26.65 C235.525,29.9666833 234.445844,32.6958226 232.2875,34.8375 C230.129156,36.9791774 227.33335,38.05 223.9,38.05 C220.46665,38.05 217.666677,36.9750108 215.5,34.825 C213.333323,32.6749893 212.25,29.9500165 212.25,26.65 C212.25,23.2999833 213.341656,20.5125111 215.525,18.2875 C217.708344,16.0624889 220.499983,14.95 223.9,14.95 C227.316684,14.95 230.108322,16.0583223 232.275,18.275 C234.441678,20.4916778 235.525,23.2833165 235.525,26.65 Z M230.5,26.6 C230.5,23.5499848 229.912506,21.1125091 228.7375,19.2875 C227.562494,17.4624909 225.95001,16.55 223.9,16.55 C221.866656,16.55 220.258339,17.4666575 219.075,19.3 C217.891661,21.1333425 217.3,23.5666515 217.3,26.6 C217.3,29.6166818 217.883328,32.0124911 219.05,33.7875 C220.216673,35.5625089 221.833323,36.45 223.9,36.45 C225.966677,36.45 227.583327,35.5708421 228.75,33.8125 C229.916673,32.0541579 230.5,29.6500153 230.5,26.6 Z M262.325,26.65 C262.325,29.9666833 261.245844,32.6958226 259.0875,34.8375 C256.929156,36.9791774 254.133351,38.05 250.7,38.05 C247.26665,38.05 244.466678,36.9750108 242.3,34.825 C240.133323,32.6749893 239.05,29.9500165 239.05,26.65 C239.05,23.2999833 240.141656,20.5125111 242.325,18.2875 C244.508344,16.0624889 247.299983,14.95 250.7,14.95 C254.116684,14.95 256.908322,16.0583223 259.075,18.275 C261.241677,20.4916778 262.325,23.2833165 262.325,26.65 Z M257.3,26.6 C257.3,23.5499848 256.712506,21.1125091 255.5375,19.2875 C254.362494,17.4624909 252.75001,16.55 250.7,16.55 C248.666656,16.55 247.058339,17.4666575 245.875,19.3 C244.691661,21.1333425 244.1,23.5666515 244.1,26.6 C244.1,29.6166818 244.683328,32.0124911 245.85,33.7875 C247.016673,35.5625089 248.633323,36.45 250.7,36.45 C252.766677,36.45 254.383328,35.5708421 255.55,33.8125 C256.716673,32.0541579 257.3,29.6500153 257.3,26.6 Z M291.375,36.6 C291.375,37.066669 291.241668,37.3 290.975,37.3 C290.30833,37.3 289.450005,37.2500005 288.4,37.15 C287.249994,37.0499995 286.266671,37 285.45,37 C284.633329,37 283.60834,37.0499995 282.375,37.15 C281.224994,37.2500005 280.31667,37.3 279.65,37.3 C279.383332,37.3 279.25,37.066669 279.25,36.6 C279.25,36.1833313 279.383332,35.9583335 279.65,35.925 C280.083335,35.8749998 280.391666,35.7916673 280.575,35.675 C280.758334,35.5583328 280.85,35.333335 280.85,35 C280.85,34.4999975 280.050008,33.4000085 278.45,31.7 L274.45,27.25 C274.116665,26.916665 273.66667,26.75 273.1,26.75 L273.1,31.7 C273.1,33.166674 273.279165,34.2083303 273.6375,34.825 C273.995835,35.4416698 274.666662,35.8083328 275.65,35.925 C275.916668,35.9583335 276.05,36.1833313 276.05,36.6 C276.05,37.066669 275.916668,37.3 275.65,37.3 C274.93333,37.3 274.000006,37.2500005 272.85,37.15 C271.749995,37.0499995 270.883337,37 270.25,37 C269.53333,37 268.666672,37.0499995 267.65,37.15 C266.683329,37.2500005 265.883337,37.3 265.25,37.3 C264.983332,37.3 264.85,37.066669 264.85,36.6 C264.85,36.1833313 264.983332,35.9583335 265.25,35.925 C266.650007,35.7749993 267.558331,35.4458359 267.975,34.9375 C268.391669,34.4291641 268.6,33.3500083 268.6,31.7 L268.6,8.475 C268.6,7.12499325 268.437502,6.24166875 268.1125,5.825 C267.787498,5.40833125 267.033339,5.133334 265.85,5 C265.583332,4.9666665 265.45,4.75833525 265.45,4.375 C265.45,3.9416645 265.583332,3.725 265.85,3.725 C268.700014,3.05833 270.808327,2.1750055 272.175,1.075 C272.425001,0.874999 272.633332,0.775 272.8,0.775 C273.266669,0.775 273.5,0.908332 273.5,1.175 C273.233332,3.908347 273.1,6.808318 273.1,9.875 L273.1,25.35 C273.700003,25.35 274.174998,25.1916683 274.525,24.875 L278.25,21.35 C278.366667,21.2333328 278.558332,21.0583345 278.825,20.825 C280.20834,19.5749938 280.9,18.650003 280.9,18.05 C280.9,17.6166645 280.23334,17.3166675 278.9,17.15 C278.633332,17.1166665 278.5,16.8833355 278.5,16.45 C278.5,15.983331 278.633332,15.75 278.9,15.75 C279.600004,15.75 280.483328,15.7999995 281.55,15.9 C282.533338,16.0000005 283.349997,16.05 284,16.05 C284.483336,16.05 285.108329,16.0083338 285.875,15.925 C286.808338,15.8083328 287.641663,15.75 288.375,15.75 C288.641668,15.75 288.775,15.983331 288.775,16.45 C288.775,16.8833355 288.641668,17.1166665 288.375,17.15 C287.158327,17.283334 286.095838,17.5666645 285.1875,18 C284.279162,18.4333355 283.050008,19.3333265 281.5,20.7 L277.2,24.5 L283.75,31.7 C285.13334,33.2166743 286.299995,34.2583305 287.25,34.825 C288.200005,35.3916695 289.441659,35.7583325 290.975,35.925 C291.241668,35.9583335 291.375,36.1833313 291.375,36.6 Z M467.8,18.9 C467.8,20.2666735 467.116674,20.95 465.75,20.95 C465.166664,20.95 464.687502,20.8250013 464.3125,20.575 C463.937498,20.3249988 463.558335,19.7833375 463.175,18.95 C462.724998,17.9666618 462.245836,17.3208349 461.7375,17.0125 C461.229164,16.7041651 460.566671,16.55 459.75,16.55 C457.733323,16.55 456.195839,17.3874916 455.1375,19.0625 C454.079161,20.7375084 453.55,23.1833173 453.55,26.4 C453.55,29.0833468 454.21666,31.2458251 455.55,32.8875 C456.88334,34.5291749 458.666656,35.35 460.9,35.35 C463.433346,35.35 465.441659,34.5583413 466.925,32.975 L467.05,32.925 C467.200001,32.925 467.345833,33.0208324 467.4875,33.2125 C467.629167,33.4041676 467.7,33.6166655 467.7,33.85 C467.7,34.183335 467.212505,34.7583293 466.2375,35.575 C465.262495,36.3916708 464.195839,37.0083313 463.0375,37.425 C461.879161,37.8416688 460.650007,38.05 459.35,38.05 C456.366652,38.05 453.812511,36.9541776 451.6875,34.7625 C449.562489,32.5708224 448.5,29.8000168 448.5,26.45 C448.5,23.1333168 449.612489,20.3875109 451.8375,18.2125 C454.062511,16.0374891 456.699985,14.95 459.75,14.95 C462.000011,14.95 463.904159,15.3374961 465.4625,16.1125 C467.020841,16.8875039 467.8,17.8166613 467.8,18.9 Z M479.65,6.375 C479.65,7.0750035 479.395836,7.68333075 478.8875,8.2 C478.379164,8.71666925 477.76667,8.975 477.05,8.975 C476.33333,8.975 475.720836,8.71666925 475.2125,8.2 C474.704164,7.68333075 474.45,7.0750035 474.45,6.375 C474.45,5.641663 474.699998,5.0250025 475.2,4.525 C475.700003,4.0249975 476.316663,3.775 477.05,3.775 C477.76667,3.775 478.379164,4.0249975 478.8875,4.525 C479.395836,5.0250025 479.65,5.641663 479.65,6.375 Z M483.15,36.6 C483.15,37.066669 483.016668,37.3 482.75,37.3 C482.066663,37.3 481.191672,37.2500005 480.125,37.15 C478.924994,37.0499995 477.916671,37 477.1,37 C476.266663,37 475.266673,37.0499995 474.1,37.15 C473.049995,37.2500005 472.183337,37.3 471.5,37.3 C471.233332,37.3 471.1,37.066669 471.1,36.6 C471.1,36.1833313 471.233332,35.9583335 471.5,35.925 C472.916674,35.7416658 473.829165,35.4000025 474.2375,34.9 C474.645835,34.3999975 474.85,33.3333415 474.85,31.7 L474.85,22.45 C474.85,21.11666 474.679168,20.2416688 474.3375,19.825 C473.995832,19.4083313 473.250006,19.133334 472.1,19 C471.833332,19 471.7,18.7833355 471.7,18.35 C471.7,17.949998 471.833332,17.75 472.1,17.75 C473.850009,17.2999978 475.283328,16.8208359 476.4,16.3125 C477.516672,15.8041641 478.216665,15.383335 478.5,15.05 C478.666668,14.849999 478.849999,14.75 479.05,14.75 C479.516669,14.75 479.75,14.883332 479.75,15.15 C479.483332,18.883352 479.35,21.783323 479.35,23.85 L479.35,31.7 C479.35,33.3333415 479.554165,34.3999975 479.9625,34.9 C480.370835,35.4000025 481.299993,35.7416658 482.75,35.925 C483.016668,35.9583335 483.15,36.1833313 483.15,36.6 Z M502.45,17.45 C502.45,18.11667 502.245835,18.683331 501.8375,19.15 C501.429165,19.616669 500.933336,19.85 500.35,19.85 C499.616663,19.85 498.89167,19.6083358 498.175,19.125 C497.608331,18.7416648 497.116669,18.55 496.7,18.55 C495.616661,18.55 494.500006,19.183327 493.35,20.45 L493.35,31.7 C493.35,33.1500073 493.599998,34.1624971 494.1,34.7375 C494.600003,35.3125029 495.666659,35.7083323 497.3,35.925 C497.566668,35.9583335 497.7,36.1833313 497.7,36.6 C497.7,37.066669 497.566668,37.3 497.3,37.3 C496.616663,37.3 495.650006,37.2500005 494.4,37.15 C493.01666,37.0499995 491.916671,37 491.1,37 C490.266663,37 489.258339,37.0499995 488.075,37.15 C487.008328,37.2500005 486.133337,37.3 485.45,37.3 C485.183332,37.3 485.05,37.066669 485.05,36.6 C485.05,36.1833313 485.183332,35.9583335 485.45,35.925 C486.900007,35.7416658 487.829165,35.4000025 488.2375,34.9 C488.645835,34.3999975 488.85,33.3333415 488.85,31.7 L488.85,22.45 C488.85,21.11666 488.679168,20.2416688 488.3375,19.825 C487.995832,19.4083313 487.233339,19.133334 486.05,19 C485.783332,19 485.65,18.7833355 485.65,18.35 C485.65,17.949998 485.783332,17.75 486.05,17.75 C487.700008,17.3333313 489.062495,16.8708359 490.1375,16.3625 C491.212505,15.8541641 491.916665,15.4166685 492.25,15.05 C492.450001,14.849999 492.649999,14.75 492.85,14.75 C493.316669,14.75 493.55,14.883332 493.55,15.15 L493.35,18.3 C494.68334,17.0666605 495.829162,16.2000025 496.7875,15.7 C497.745838,15.1999975 498.699995,14.95 499.65,14.95 C500.416671,14.95 501.074997,15.1999975 501.625,15.7 C502.175003,16.2000025 502.45,16.78333 502.45,17.45 Z M523.5,18.9 C523.5,20.2666735 522.816674,20.95 521.45,20.95 C520.866664,20.95 520.387502,20.8250013 520.0125,20.575 C519.637498,20.3249988 519.258335,19.7833375 518.875,18.95 C518.424998,17.9666618 517.945836,17.3208349 517.4375,17.0125 C516.929164,16.7041651 516.266671,16.55 515.45,16.55 C513.433323,16.55 511.895839,17.3874916 510.8375,19.0625 C509.779161,20.7375084 509.25,23.1833173 509.25,26.4 C509.25,29.0833468 509.91666,31.2458251 511.25,32.8875 C512.58334,34.5291749 514.366656,35.35 516.6,35.35 C519.133346,35.35 521.141659,34.5583413 522.625,32.975 L522.75,32.925 C522.900001,32.925 523.045833,33.0208324 523.1875,33.2125 C523.329167,33.4041676 523.4,33.6166655 523.4,33.85 C523.4,34.183335 522.912505,34.7583293 521.9375,35.575 C520.962495,36.3916708 519.895839,37.0083313 518.7375,37.425 C517.579161,37.8416688 516.350007,38.05 515.05,38.05 C512.066652,38.05 509.512511,36.9541776 507.3875,34.7625 C505.262489,32.5708224 504.2,29.8000168 504.2,26.45 C504.2,23.1333168 505.312489,20.3875109 507.5375,18.2125 C509.762511,16.0374891 512.399985,14.95 515.45,14.95 C517.700011,14.95 519.604159,15.3374961 521.1625,16.1125 C522.720841,16.8875039 523.5,17.8166613 523.5,18.9 Z M538.3,36.55 C538.3,37.016669 538.166668,37.25 537.9,37.25 C537.216663,37.25 536.341672,37.2083338 535.275,37.125 C534.074994,37.0416663 533.066671,37 532.25,37 C531.449996,37 530.458339,37.0416663 529.275,37.125 C528.208328,37.2083338 527.333337,37.25 526.65,37.25 C526.383332,37.25 526.25,37.016669 526.25,36.55 C526.25,36.1333313 526.383332,35.9083335 526.65,35.875 C528.066674,35.7083325 528.987498,35.3708359 529.4125,34.8625 C529.837502,34.3541641 530.05,33.2833415 530.05,31.65 L530.05,8.425 C530.05,7.07499325 529.883335,6.19166875 529.55,5.775 C529.216665,5.35833125 528.450006,5.083334 527.25,4.95 C526.983332,4.9166665 526.85,4.70833525 526.85,4.325 C526.85,3.924998 526.983332,3.725 527.25,3.725 C529.000009,3.27499775 530.433328,2.79583588 531.55,2.2875 C532.666672,1.77916413 533.366665,1.35000175 533.65,1 C533.816668,0.81666575 533.999999,0.725 534.2,0.725 C534.666669,0.725 534.9,0.858332 534.9,1.125 C534.633332,4.858352 534.5,7.758323 534.5,9.825 L534.5,31.65 C534.5,33.2833415 534.708331,34.3541641 535.125,34.8625 C535.541669,35.3708359 536.46666,35.7083325 537.9,35.875 C538.166668,35.9083335 538.3,36.1333313 538.3,36.55 Z M560.05,23.1 C560.05,23.566669 559.750003,23.8 559.15,23.8 L545.45,23.8 C545.35,24.7000045 545.3,25.6333285 545.3,26.6 C545.3,29.2833468 545.937494,31.3458261 547.2125,32.7875 C548.487506,34.2291739 550.299988,34.95 552.65,34.95 C553.833339,34.95 555.024994,34.6333365 556.225,34 C557.425006,33.3666635 558.391663,32.5583383 559.125,31.575 L559.25,31.525 C559.400001,31.525 559.545833,31.6166658 559.6875,31.8 C559.829167,31.9833343 559.9,32.1999988 559.9,32.45 C559.9,32.8000018 559.366672,33.5291611 558.3,34.6375 C557.233328,35.7458389 556.075006,36.5916638 554.825,37.175 C553.574994,37.7583363 552.266674,38.05 550.9,38.05 C547.899985,38.05 545.37501,36.950011 543.325,34.75 C541.27499,32.549989 540.25,29.850016 540.25,26.65 C540.25,23.383317 541.254157,20.616678 543.2625,18.35 C545.270843,16.083322 547.816651,14.95 550.9,14.95 C553.483346,14.95 555.654158,15.7958249 557.4125,17.4875 C559.170842,19.1791751 560.05,21.0499898 560.05,23.1 Z M555.5,20.9 C555.5,19.6499938 555.070838,18.6125041 554.2125,17.7875 C553.354162,16.9624959 552.250007,16.55 550.9,16.55 C549.61666,16.55 548.504171,17.0874946 547.5625,18.1625 C546.620829,19.2375054 545.983335,20.6499913 545.65,22.4 L552.6,22.2 C553.650005,22.1833333 554.395831,22.0833343 554.8375,21.9 C555.279169,21.7166658 555.5,21.3833358 555.5,20.9 Z" id="national-book-critic"></path>
            <ellipse id="Oval" stroke="#2C4D73" transform="translate(281.000000, 48.500000) scale(1, -1) translate(-281.000000, -48.500000) " cx="281" cy="48.5" rx="280" ry="1.5"></ellipse>
        </g>
        <g id="Group-2" transform="translate(311.000000, 7.000000)" fill="#2C4D73">
            <path d="M19.95,15.9 C19.95,17.2666735 19.2666735,17.95 17.9,17.95 C17.3166637,17.95 16.8375019,17.8250013 16.4625,17.575 C16.0874981,17.3249988 15.7083352,16.7833375 15.325,15.95 C14.8749977,14.9666618 14.3958359,14.3208349 13.8875,14.0125 C13.3791641,13.7041651 12.7166707,13.55 11.9,13.55 C9.88332325,13.55 8.34583862,14.3874916 7.2875,16.0625 C6.22916137,17.7375084 5.7,20.1833173 5.7,23.4 C5.7,26.0833468 6.36666,28.2458251 7.7,29.8875 C9.03334,31.5291749 10.8166555,32.35 13.05,32.35 C15.583346,32.35 17.5916592,31.5583413 19.075,29.975 L19.2,29.925 C19.3500007,29.925 19.4958326,30.0208324 19.6375,30.2125 C19.7791674,30.4041676 19.85,30.6166655 19.85,30.85 C19.85,31.183335 19.3625049,31.7583293 18.3875,32.575 C17.4124951,33.3916708 16.3458391,34.0083313 15.1875,34.425 C14.0291609,34.8416688 12.8000065,35.05 11.5,35.05 C8.51665175,35.05 5.96251062,33.9541776 3.8375,31.7625 C1.71248937,29.5708224 0.65,26.8000168 0.65,23.45 C0.65,20.1333168 1.76248887,17.3875109 3.9875,15.2125 C6.21251112,13.0374891 8.84998475,11.95 11.9,11.95 C14.1500112,11.95 16.0541589,12.3374961 17.6125,13.1125 C19.1708411,13.8875039 19.95,14.8166613 19.95,15.9 Z" id="Path"></path>
            <path d="M40.6,14.45 C40.6,15.11667 40.3958354,15.683331 39.9875,16.15 C39.5791646,16.616669 39.0833362,16.85 38.5,16.85 C37.766663,16.85 37.0416702,16.6083358 36.325,16.125 C35.7583305,15.7416647 35.2666688,15.55 34.85,15.55 C33.7666612,15.55 32.6500057,16.183327 31.5,17.45 L31.5,28.7 C31.5,30.1500073 31.7499975,31.1624971 32.25,31.7375 C32.7500025,32.3125029 33.8166585,32.7083322 35.45,32.925 C35.716668,32.9583335 35.85,33.1833312 35.85,33.6 C35.85,34.066669 35.716668,34.3 35.45,34.3 C34.7666632,34.3 33.8000062,34.2500005 32.55,34.15 C31.1666597,34.0499995 30.0666707,34 29.25,34 C28.4166625,34 27.4083392,34.0499995 26.225,34.15 C25.158328,34.2500005 24.2833367,34.3 23.6,34.3 C23.333332,34.3 23.2,34.066669 23.2,33.6 C23.2,33.1833312 23.333332,32.9583335 23.6,32.925 C25.0500072,32.7416657 25.9791646,32.4000025 26.3875,31.9 C26.7958354,31.3999975 27,30.3333415 27,28.7 L27,19.45 C27,18.11666 26.8291684,17.2416688 26.4875,16.825 C26.1458316,16.4083312 25.3833392,16.133334 24.2,16 C23.933332,16 23.8,15.7833355 23.8,15.35 C23.8,14.949998 23.933332,14.75 24.2,14.75 C25.8500082,14.3333313 27.2124946,13.8708359 28.2875,13.3625 C29.3625054,12.8541641 30.066665,12.4166685 30.4,12.05 C30.600001,11.849999 30.799999,11.75 31,11.75 C31.466669,11.75 31.7,11.883332 31.7,12.15 L31.5,15.3 C32.83334,14.0666605 33.9791619,13.2000025 34.9375,12.7 C35.8958381,12.1999975 36.8499952,11.95 37.8,11.95 C38.5666705,11.95 39.2249972,12.1999975 39.775,12.7 C40.3250027,13.2000025 40.6,13.78333 40.6,14.45 Z" id="Path"></path>
            <path d="M50.4,3.375 C50.4,4.0750035 50.1458359,4.68333075 49.6375,5.2 C49.1291641,5.71666925 48.5166703,5.975 47.8,5.975 C47.0833298,5.975 46.4708359,5.71666925 45.9625,5.2 C45.4541641,4.68333075 45.2,4.0750035 45.2,3.375 C45.2,2.641663 45.4499975,2.0250025 45.95,1.525 C46.4500025,1.0249975 47.066663,0.775 47.8,0.775 C48.5166703,0.775 49.1291641,1.0249975 49.6375,1.525 C50.1458359,2.0250025 50.4,2.641663 50.4,3.375 Z" id="Path"></path>
            <path d="M53.9,33.6 C53.9,34.066669 53.766668,34.3 53.5,34.3 C52.8166633,34.3 51.941672,34.2500005 50.875,34.15 C49.674994,34.0499995 48.6666708,34 47.85,34 C47.0166625,34 46.0166725,34.0499995 44.85,34.15 C43.7999948,34.2500005 42.9333368,34.3 42.25,34.3 C41.983332,34.3 41.85,34.066669 41.85,33.6 C41.85,33.1833312 41.983332,32.9583335 42.25,32.925 C43.6666738,32.7416657 44.5791646,32.4000025 44.9875,31.9 C45.3958354,31.3999975 45.6,30.3333415 45.6,28.7 L45.6,19.45 C45.6,18.11666 45.4291684,17.2416688 45.0875,16.825 C44.7458316,16.4083312 44.0000058,16.133334 42.85,16 C42.583332,16 42.45,15.7833355 42.45,15.35 C42.45,14.949998 42.583332,14.75 42.85,14.75 C44.6000088,14.2999978 46.0333278,13.8208359 47.15,13.3125 C48.2666723,12.8041641 48.9666653,12.383335 49.25,12.05 C49.4166675,11.849999 49.599999,11.75 49.8,11.75 C50.266669,11.75 50.5,11.883332 50.5,12.15 C50.233332,15.883352 50.1,18.783323 50.1,20.85 L50.1,28.7 C50.1,30.3333415 50.3041646,31.3999975 50.7125,31.9 C51.1208354,32.4000025 52.0499928,32.7416657 53.5,32.925 C53.766668,32.9583335 53.9,33.1833312 53.9,33.6 Z" id="Path"></path>
            <path d="M71.85,14.4 C71.85,15.3000045 71.6333355,15.75 71.2,15.75 L63.75,15.55 L63.75,27.55 C63.75,30.683349 64.8666555,32.25 67.1,32.25 C68.4833402,32.25 69.741661,31.9250033 70.875,31.275 C71.008334,31.275 71.1291661,31.3624991 71.2375,31.5375 C71.3458339,31.7125009 71.4,31.899999 71.4,32.1 C71.4,32.5166688 70.7791729,33.0791631 69.5375,33.7875 C68.2958271,34.4958369 66.9000077,34.85 65.35,34.85 C63.4499905,34.85 61.933339,34.2708391 60.8,33.1125 C59.666661,31.9541609 59.1,30.4250095 59.1,28.525 L59.1,28.3 L59.2,16.15 C59.2,15.683331 59.000002,15.45 58.6,15.45 L56.7,15.45 C56.3333315,15.45 56.15,15.2333355 56.15,14.8 C56.15,14.466665 56.2999985,14.2166675 56.6,14.05 C58.9166782,12.6833265 60.9333247,10.7583458 62.65,8.275 C62.8333342,8.008332 63.0666652,7.875 63.35,7.875 C63.816669,7.875 64.05,8.008332 64.05,8.275 L63.85,13.05 L71.2,13.05 C71.6333355,13.05 71.85,13.4999955 71.85,14.4 Z" id="Path"></path>
            <path d="M82.85,3.375 C82.85,4.0750035 82.5958359,4.68333075 82.0875,5.2 C81.5791641,5.71666925 80.9666703,5.975 80.25,5.975 C79.5333298,5.975 78.9208359,5.71666925 78.4125,5.2 C77.9041641,4.68333075 77.65,4.0750035 77.65,3.375 C77.65,2.641663 77.8999975,2.0250025 78.4,1.525 C78.9000025,1.0249975 79.516663,0.775 80.25,0.775 C80.9666703,0.775 81.5791641,1.0249975 82.0875,1.525 C82.5958359,2.0250025 82.85,2.641663 82.85,3.375 Z" id="Path"></path>
            <path d="M86.35,33.6 C86.35,34.066669 86.216668,34.3 85.95,34.3 C85.2666633,34.3 84.391672,34.2500005 83.325,34.15 C82.124994,34.0499995 81.1166708,34 80.3,34 C79.4666625,34 78.4666725,34.0499995 77.3,34.15 C76.2499948,34.2500005 75.3833368,34.3 74.7,34.3 C74.433332,34.3 74.3,34.066669 74.3,33.6 C74.3,33.1833312 74.433332,32.9583335 74.7,32.925 C76.1166738,32.7416657 77.0291646,32.4000025 77.4375,31.9 C77.8458354,31.3999975 78.05,30.3333415 78.05,28.7 L78.05,19.45 C78.05,18.11666 77.8791684,17.2416688 77.5375,16.825 C77.1958316,16.4083312 76.4500058,16.133334 75.3,16 C75.033332,16 74.9,15.7833355 74.9,15.35 C74.9,14.949998 75.033332,14.75 75.3,14.75 C77.0500088,14.2999978 78.4833278,13.8208359 79.6,13.3125 C80.7166723,12.8041641 81.4166653,12.383335 81.7,12.05 C81.8666675,11.849999 82.049999,11.75 82.25,11.75 C82.716669,11.75 82.95,11.883332 82.95,12.15 C82.683332,15.883352 82.55,18.783323 82.55,20.85 L82.55,28.7 C82.55,30.3333415 82.7541646,31.3999975 83.1625,31.9 C83.5708354,32.4000025 84.4999928,32.7416657 85.95,32.925 C86.216668,32.9583335 86.35,33.1833312 86.35,33.6 Z" id="Path"></path>
            <path d="M108.1,15.9 C108.1,17.2666735 107.416673,17.95 106.05,17.95 C105.466664,17.95 104.987502,17.8250013 104.6125,17.575 C104.237498,17.3249988 103.858335,16.7833375 103.475,15.95 C103.024998,14.9666618 102.545836,14.3208349 102.0375,14.0125 C101.529164,13.7041651 100.866671,13.55 100.05,13.55 C98.0333232,13.55 96.4958386,14.3874916 95.4375,16.0625 C94.3791614,17.7375084 93.85,20.1833173 93.85,23.4 C93.85,26.0833468 94.51666,28.2458251 95.85,29.8875 C97.18334,31.5291749 98.9666555,32.35 101.2,32.35 C103.733346,32.35 105.741659,31.5583413 107.225,29.975 L107.35,29.925 C107.500001,29.925 107.645833,30.0208324 107.7875,30.2125 C107.929167,30.4041676 108,30.6166655 108,30.85 C108,31.183335 107.512505,31.7583293 106.5375,32.575 C105.562495,33.3916708 104.495839,34.0083313 103.3375,34.425 C102.179161,34.8416688 100.950006,35.05 99.65,35.05 C96.6666517,35.05 94.1125106,33.9541776 91.9875,31.7625 C89.8624894,29.5708224 88.8,26.8000168 88.8,23.45 C88.8,20.1333168 89.9124889,17.3875109 92.1375,15.2125 C94.3625111,13.0374891 96.9999847,11.95 100.05,11.95 C102.300011,11.95 104.204159,12.3374961 105.7625,13.1125 C107.320841,13.8875039 108.1,14.8166613 108.1,15.9 Z" id="Path"></path>
            <path d="M127.65,27.85 C127.65,29.8833435 126.850008,31.5916598 125.25,32.975 C123.649992,34.3583403 121.716678,35.05 119.45,35.05 C118.649996,35.05 117.416675,34.8750018 115.75,34.525 C114.499994,34.2749988 113.650002,34.15 113.2,34.15 C113.066666,32.9833275 112.758336,31.2083453 112.275,28.825 C112.275,28.5749988 112.516664,28.45 113,28.45 C113.400002,28.45 113.641666,28.583332 113.725,28.85 C114.108335,30.0833395 114.866661,31.1583288 116,32.075 C117.133339,32.9916713 118.299994,33.45 119.5,33.45 C120.750006,33.45 121.72083,33.1083368 122.4125,32.425 C123.10417,31.7416633 123.45,30.7833395 123.45,29.55 C123.45,28.7666628 123.162503,28.075003 122.5875,27.475 C122.012497,26.874997 120.766676,26.1333378 118.85,25.25 C116.333321,24.0999943 114.670837,23.0166718 113.8625,22 C113.054163,20.9833283 112.65,19.7666738 112.65,18.35 C112.65,16.5999913 113.408326,15.0958396 114.925,13.8375 C116.441674,12.5791604 118.233323,11.95 120.3,11.95 C121.166671,11.95 122.383326,12.0999985 123.95,12.4 C124.816671,12.5666675 125.383332,12.65 125.65,12.65 C125.7,14.6166765 125.808333,16.2916598 125.975,17.675 C125.975,17.9250013 125.733336,18.05 125.25,18.05 C124.833331,18.05 124.6,17.916668 124.55,17.65 C124.366666,16.4333273 123.908337,15.4458371 123.175,14.6875 C122.441663,13.9291629 121.566672,13.55 120.55,13.55 C117.949987,13.55 116.65,14.683322 116.65,16.95 C116.65,17.7166705 116.95833,18.4249968 117.575,19.075 C118.19167,19.7250033 119.533323,20.5666615 121.6,21.6 C124.066679,22.8333395 125.691663,23.8999955 126.475,24.8 C127.258337,25.7000045 127.65,26.716661 127.65,27.85 Z" id="Path"></path>
        </g>
    </g>
</svg>